<?xml version="1.0" encoding="utf-8"?>
<!-- Generator: Adobe Illustrator 19.0.0, SVG Export Plug-In . SVG Version: 6.00 Build 0)  -->
<svg version="1.1" id="Warstwa_1" xmlns="http://www.w3.org/2000/svg" xmlns:xlink="http://www.w3.org/1999/xlink" x="0px" y="0px"
	 viewBox="240 270 650 600" style="enable-background:new 0 0 1080 1080;" xml:space="preserve">
<style type="text/css">
	.st0{fill:none;stroke:#000000;stroke-width:4;stroke-miterlimit:10;}
	.st1{stroke:#000000;stroke-width:4;stroke-miterlimit:10;}
</style>
<g id="XMLID_272_">
	<g id="XMLID_273_">
		<g id="XMLID_1037_">
		</g>
		<g id="XMLID_1035_">
			<line id="XMLID_277_" class="st0" x1="361.5" y1="355.6" x2="520.1" y2="746.8"/>
		</g>
	</g>
	<line id="XMLID_278_" class="st1" x1="520.1" y1="746.8" x2="568.5" y2="582.2"/>
	<line id="XMLID_279_" class="st1" x1="568.5" y1="582.2" x2="733.8" y2="553.9"/>
	<g id="XMLID_280_">
		<g id="XMLID_1028_">
		</g>
		<g id="XMLID_1026_">
			<line id="XMLID_284_" class="st0" x1="361.5" y1="355.6" x2="733.8" y2="553.9"/>
		</g>
	</g>
	<line id="XMLID_285_" class="st1" x1="562.5" y1="602.7" x2="562.6" y2="602.4"/>
	
		<rect id="XMLID_286_" x="597.9" y="537.3" transform="matrix(0.7985 -0.602 0.602 0.7985 -262.3837 496.8751)" class="st1" width="26.3" height="206.2"/>
	<g id="XMLID_287_">
		<path id="XMLID_892_" d="M519.9,747.5"/>
		<g id="XMLID_887_">
			<path id="XMLID_852_" d="M519.9,749c1.9,0,1.9-3,0-3C518,746,518,749,519.9,749L519.9,749z"/>
		</g>
	</g>
	<g id="XMLID_288_">
		<path id="XMLID_885_" d="M520.5,747.1"/>
		<g id="XMLID_880_">
			<path id="XMLID_846_" d="M520.5,748.6c1.9,0,1.9-3,0-3C518.5,745.6,518.5,748.6,520.5,748.6L520.5,748.6z"/>
		</g>
	</g>
	<g id="XMLID_289_">
		<path id="XMLID_878_" d="M362.8,357.4"/>
		<g id="XMLID_873_">
			<path id="XMLID_840_" d="M362.8,360.4c3.9,0,3.9-6,0-6C358.9,354.4,358.9,360.4,362.8,360.4L362.8,360.4z"/>
		</g>
	</g>
	<g id="XMLID_290_">
		<path id="XMLID_871_" d="M362.1,356.6"/>
		<g id="XMLID_866_">
			<path id="XMLID_834_" d="M362.1,359.6c3.9,0,3.9-6,0-6C358.2,353.6,358.2,359.6,362.1,359.6L362.1,359.6z"/>
		</g>
	</g>
</g>
<g id="XMLID_291_">
	<g id="XMLID_860_">
		<path id="XMLID_828_" d="M470.1,494.4c12.9,15.2,23.4,32.2,31.1,50.6c0.7,1.8,3.6,1,2.9-0.8c-7.9-18.9-18.6-36.3-31.9-51.9
			C471,490.8,468.9,492.9,470.1,494.4L470.1,494.4z"/>
	</g>
</g>
<g id="XMLID_292_">
	<g id="XMLID_854_">
		<path id="XMLID_822_" d="M471.1,478.8c-1.7-0.5,1,3,1.5,3.9c0.9,1.6,1.8,3.3,2.6,4.9c1.9,3.6,3.7,7.2,5.4,10.9
			c3.5,7.3,6.7,14.7,9.6,22.2c1.5,3.8,5,6.4,9.2,5.2c3.6-1,6.7-5.4,5.2-9.2c-3.9-9.9-8.1-19.6-12.8-29.1c-2.2-4.5-4.5-8.9-6.9-13.3
			c-2.5-4.5-4.8-8.5-10-10C465.8,461.7,461.8,476.2,471.1,478.8L471.1,478.8z"/>
	</g>
</g>
<g id="XMLID_293_">
	<g id="XMLID_848_">
		<path id="XMLID_816_" d="M473.1,467c-0.9-0.3-1.7-0.7-2.6-1c-5.7-2.3-10.3,4.3-9.2,9.2c6,27,17.8,52.5,34.5,74.6
			c2.3,3,5.6,4.6,9.4,3.1c3.3-1.4,5.5-5.3,4.3-8.8c-9-27.7-20.5-54.5-34.3-80.2c-3.4-6.4-14.5-3.7-14,3.8c0.6,9.2,4.3,17.3,8.1,25.5
			c3.6,8,7.5,15.8,11.7,23.5c4.4,8.2,9,16.3,14,24.1c4.1,6.5,8.9,14.5,15.7,18.5c3.8,2.3,8.9,2,11.9-1.5c2.7-3.2,3-7.7,3.3-11.7
			c0.6-8.9-1.2-18-3-26.6c-3.7-18.1-9.6-35.6-17.1-52.5c-1.8-4-6.9-4.2-10.3-2.7c-8.8,4-4.7,17.7-3.4,24.9c1.7,9.5,4.3,18.9,7.7,28
			c3.4,8.9,7.4,17.5,12.2,25.7c4.4,7.5,9.9,18.8,20,18.2c3.3-0.2,6.4-2.2,7.2-5.5c3.2-12.6,1.9-24.9-3.2-36.7c-2.1-5-10.8-4.8-13,0
			c-3.2,7.1-5.2,14.3-5.6,22c-0.4,6.4-0.6,16.8,5.6,20.7c6.6,4.1,13.7-1.8,17-7.4c3.3-5.7,3.9-12.9,1.4-18.9
			c-2.3-5.5-10.3-8-13.7-1.8c-4.1,7.5-5.7,16.6-2.8,24.9c3.1,8.9,11.7,11.9,19.9,7.7c13.7-7,23.7-20.9,28.2-35.4
			c2.1-6.9-7.6-13.1-12.5-7.3c-9.2,10.9-12.7,24.2-15.4,37.9c-1.7,8.7,8.6,12.5,13.7,5.8c5.8-7.7,9.9-16.4,12.4-25.6
			c1.4-5.2-3.7-11.2-9.2-9.2c-10.4,3.6-15.4,15.3-20.8,24c-6.4,10.4-12.6,21-18.5,31.6c4.6,1.9,9.1,3.9,13.7,5.8
			c3.8-11.4,4.4-23.1,2.5-34.9c-1.2-7.6-12.7-6.7-14.5,0c-4.6,17-7.7,34.3-9.8,51.8c5,0,10,0,15,0c1.4-22.2,2-44.5,1.8-66.7
			c-0.1-9.6-15.1-9.7-15,0c0.1,8.1,0.1,16.2,0.2,24.3c4.9-0.7,9.8-1.3,14.7-2c-2.1-5.5-3.8-11.2-5.1-17c-2.1-9.4-16.6-5.4-14.5,4
			c1.3,5.8,3,11.4,5.1,17c2.8,7.5,14.8,7,14.7-2c-0.1-8.1-0.1-16.2-0.2-24.3c-5,0-10,0-15,0c0.2,22.3-0.4,44.5-1.8,66.7
			c-0.3,4,3.6,7.5,7.5,7.5c4.4,0,7-3.5,7.5-7.5c1.9-16.2,5-32.1,9.2-47.9c-4.8,0-9.6,0-14.5,0c1.5,9.1,0.4,18.2-2.5,26.9
			c-2.7,8.1,9.6,13.1,13.7,5.8c5-9,10.2-17.9,15.5-26.7c2.7-4.4,5.4-8.8,8.1-13.1c1.5-2.4,3.7-7.9,6.7-8.9c-3.1-3.1-6.2-6.2-9.2-9.2
			c-2.2,8.1-5.8,15.3-10.9,22.1c4.6,1.9,9.1,3.9,13.7,5.8c2.2-10.8,4.2-22.6,11.6-31.3c-4.2-2.4-8.4-4.9-12.5-7.3
			c-2.5,8-6.9,15-13.1,20.6c-1.4,1.3-2.8,2.4-4.4,3.5c-0.8,0.5-1.9,1-2.5,1.6c-0.4,0.2-0.8,0.5-1.3,0.7c0.6,0.2,1.3,0.5,1.9,0.7
			c0,0-0.8-5.4-0.7-6.1c0.2-2.4,1-4.6,2.2-6.7c-4.6-0.6-9.1-1.2-13.7-1.8c1.5,3.5,1.5,7.7-2.3,9.7c1.3-0.3,2.5-0.7,3.8-1
			c-0.4,0-0.9,0-1.3,0c1.3,0.3,2.5,0.7,3.8,1c1.9,2.7,2.4,2.8,1.7,0.3c-0.1-1-0.2-2.1-0.3-3.1c-0.1-2.3-0.1-4.6,0.1-6.9
			c0.4-4.4,1.6-8.7,3.4-12.7c-4.3,0-8.6,0-13,0c3.4,8,3.8,16.8,1.7,25.1c2.4-1.8,4.8-3.7,7.2-5.5c-0.7,0-3.6-5.2-4.4-6.4
			c-1.8-2.9-3.6-5.8-5.2-8.9c-3.2-6-6.1-12.1-8.4-18.4c-2.4-6.4-4.4-13-5.9-19.7c-0.7-3.1-1.3-6.1-1.8-9.2c-0.3-1.6-0.5-3.2-0.7-4.8
			c-0.1-0.8-0.2-1.7-0.3-2.6c0.1-2.7-0.6-2.4-2.2,1.1c-3.4-0.9-6.8-1.8-10.3-2.7c5.4,12.3,9.8,25,13.1,38c1.6,6.3,3,12.7,4.1,19.2
			c0.5,3,0.9,5.9,1,8.9c0.1,1.8,0.1,3.7-0.1,5.5c-0.1,1.7-1.9,4.6,0.5,1.9c1.8-0.7,3.5-1.5,5.3-2.2c-0.5,0-1,0-1.4,0
			c1.3,0.3,2.5,0.7,3.8,1c-5.6-3.6-9.4-11.1-12.8-16.6c-4.1-6.7-8-13.4-11.7-20.3c-3.7-6.9-7.2-13.9-10.5-20.9
			c-3.1-6.7-7.2-13.9-7.6-21.4c-4.7,1.3-9.3,2.5-14,3.8c13.2,24.6,24.1,50.1,32.7,76.6c4.6-1.9,9.1-3.9,13.7-5.8
			c-16-21.1-27.2-45.1-32.9-71c-3.1,3.1-6.2,6.2-9.2,9.2c0.9,0.3,1.7,0.7,2.6,1c3.8,1.5,8.2-1.7,9.2-5.2
			C479.6,471.9,476.8,468.5,473.1,467L473.1,467z"/>
	</g>
</g>
<g id="XMLID_294_">
	<g id="XMLID_842_">
		<path id="XMLID_810_" d="M461.6,466.8c5.4,24.8,13.6,48.7,24.1,71.8c2.7,5.9,11.2,7.3,16.4,4.3c6.1-3.6,7-10.5,4.3-16.4
			c-9.6-21.2-16.7-43.4-21.6-66.1c-1.4-6.3-8.7-10-14.8-8.4C463.4,453.8,460.2,460.4,461.6,466.8L461.6,466.8z"/>
	</g>
</g>
<g id="XMLID_295_">
	<g id="XMLID_836_">
		<path id="XMLID_804_" d="M444,486.3c8.7,23.2,17.5,46.5,26.2,69.7c7.7-2.1,15.4-4.3,23.1-6.4c-3.7-9.4-7.7-18.6-12.1-27.7
			c-2.8-5.8-11.2-7.4-16.4-4.3c-6,3.5-7.1,10.6-4.3,16.4c3.5,7.2,6.7,14.5,9.6,22c2.4,6,8,10.2,14.8,8.4c5.8-1.6,10.7-8.7,8.4-14.8
			c-8.7-23.2-17.5-46.5-26.2-69.7c-2.3-6.1-8.1-10.2-14.8-8.4C446.6,473.2,441.8,480.2,444,486.3L444,486.3z"/>
	</g>
</g>
<g id="XMLID_296_">
	<g id="XMLID_830_">
		<path id="XMLID_798_" d="M426.9,481.5c10.2,28.9,23.7,56.6,40.5,82.3c7.2,11,26,4.3,21.9-9.2c-8.8-29.5-23.3-56.5-42.6-80.3
			c-3.3-4.1-10.3-4.4-14.5-1.9c-4.8,2.8-6.5,8.3-5.5,13.6c2.2,11.5,5.3,22.7,9.1,33.8c5,14.5,26.9,8.8,23.1-6.4
			c-6-24.3-24-43.8-28.3-68.6c-6.7,3.9-13.4,7.8-20.1,11.7c15.4,13.8,30.9,27.5,46.3,41.3c7.3,6.5,21,2.5,20.5-8.5
			c-0.6-13.2-8.5-24.5-15.3-35.3c-7-11.1-14.7-21.7-22.7-32c-4.8,6.3-9.7,12.6-14.5,18.8c41,29.8,82,59.7,123,89.5
			c1-7.3,1.9-14.6,2.9-21.9c-2.7,1.1,1.2,0.3-1.9,0.4c-1.1,0-2.2-0.2-3.3-0.1c-3.6,0-7.1,0.7-10.3,2.4c-6.5,3.6-8.2,10.6-9.7,17.3
			c-1.4,6.5-2.5,13-3.5,19.6c-1,6.6-2.6,13.9-2.2,20.6c0.6,8.7,6.9,15.7,15.9,15c6.8-0.5,12.5-5.9,17.1-10.5
			c8.8-8.8,15.1-19.8,18.5-31.7c3.7-12.8-15.6-21.5-21.9-9.2c-8.1,15.7-16.1,31.5-24.2,47.2c7.3,3.1,14.6,6.2,21.9,9.2
			c4.4-15.2,10.4-29.7,18.1-43.5c-7.3-3.1-14.6-6.2-21.9-9.2c-5,21.3-11.7,42.2-20.3,62.3c-2.6,5.9-1.8,12.9,4.3,16.4
			c5.3,3.1,13.6,1.5,16.4-4.3c7.8-16,15.6-32.1,23.4-48.2c0.4-0.8,1.3-3.2,1.7-3.5c-1,0.7,0.1,0.2,0.9,0.2c3.8,0,8-1.2,11.7-2
			c8.7-2,17-5.2,25.1-8.9c-4-6.9-8.1-13.8-12.1-20.7c-9.3,4.5-18.4,9.4-27.2,14.8c-8.6,5.3-18.2,12.2-17.3,23.5
			c0.6,8.3,7.1,13,15.2,11.6c13.4-2.3,26.5-5.6,39.4-9.8c-2.1-7.7-4.3-15.4-6.4-23.1c-12.7,4.3-37.7,8.5-36,26.7
			c0.9,9.5,9.4,14.4,18.1,10.4c14.2-6.6,29.2-11.6,44.4-15.3c7.5-1.8,15.1-3.3,22.8-4.4c8.1-1.1,16.3-1,24.4-2.2
			c9.6-1.4,16.9-10.3,14.2-20.2c-2.2-8.1-12.4-12.4-19.3-15.7c-15-7-30.9-10.8-47.3-12.6c-19.4-2.1-39-1.1-58.5,0
			c-5.9,0.3-11.1,4.3-11.8,10.4c-0.6,5.4,2.6,12.2,8.6,13.2c28,4.7,56.3,6.9,84.7,6.1c-1.1-7.9-2.1-15.7-3.2-23.6
			c-19.8,3-39.6,6-59.4,9c-6.4,1-10,9-8.4,14.8c1.9,6.9,8.3,9.4,14.8,8.4c19.8-3,39.6-6,59.4-9c5.8-0.9,9.4-7.9,8.6-13.2
			c-0.9-5.7-5.7-10.6-11.8-10.4c-26.2,0.7-52.4-0.9-78.3-5.3c-1.1,7.9-2.1,15.7-3.2,23.6c19.7-1.1,39.7-2.2,59.4,0.1
			c8.2,1,16.4,2.8,24.2,5.3c4,1.3,7.9,2.8,11.7,4.6c2.1,1,4.1,2.1,6.2,3.3c1,0.6,2,1.2,3,1.8c1.8,1.2,2,1.3,0.5,0.3
			c-1-1.8-2.1-3.5-3.1-5.3c8.1-6.8,9.7-9.9,4.8-9.3c-1.2,0.1-2.4,0.1-3.6,0.2c-1.8,0.1-3.6,0.2-5.5,0.4c-4.2,0.4-8.5,0.8-12.7,1.4
			c-9.2,1.2-18.3,2.8-27.4,5c-17.3,4.1-34,10.2-50.2,17.7c6,3.5,12,6.9,18.1,10.4c-0.4,1.1-1,2.2-1.6,3.3c-0.8,0.6-0.5,0.5,0.7-0.3
			c-0.9,0.2-0.6,0.1,0.8-0.3c1.2-0.4,2.5-0.8,3.7-1.2c4.9-1.7,9.9-3.3,14.8-5c6.1-2.1,10.2-8.3,8.4-14.8c-1.7-6.1-8.6-10.4-14.8-8.4
			c-12.9,4.2-26.1,7.4-39.4,9.8c5.1,3.9,10.1,7.7,15.2,11.6c0-0.1-0.5,1.3-0.6,1.3c0.7-0.3,1.4-1.2,2.1-1.6
			c3.3-2.3,6.9-4.3,10.4-6.3c6.8-3.9,13.7-7.5,20.7-10.9c5.8-2.8,7.4-11.2,4.3-16.4c-3.5-6-10.5-7.1-16.4-4.3
			c-7.8,3.6-16.2,6.1-24.7,7.6c-9.2,1.6-16.8,3.5-21.8,12.4c-9.2,16.4-16.6,34.1-24.8,51c6.9,4,13.8,8.1,20.7,12.1
			c9.5-22.1,17.2-44.7,22.7-68.1c3-12.9-15.1-21.5-21.9-9.2c-8.7,15.6-15.6,32.1-20.5,49.3c-3.7,12.8,15.6,21.5,21.9,9.2
			c8.1-15.7,16.1-31.5,24.2-47.2c-7.3-3.1-14.6-6.2-21.9-9.2c-1.6,5.5-3.9,10.5-7.3,15.3c-1.5,2.1-3.2,4-5.1,5.9
			c-1.2,1.2-3.3,3.8-4.9,4.1c2.1,0,4.3,0,6.4,0c-0.3-0.1-0.6-0.3-1-0.4c1.8,1,3.5,2.1,5.3,3.1c0.7,1.5,1.4,3,2.1,4.5
			c0-0.4,0-0.8,0.1-1.2c0.4-1,0.3-2.7,0.4-3.8c0.2-2.1,0.5-4.1,0.7-6.2c0.7-5.3,1.6-10.6,2.6-15.9c0.5-2.5,1-5,1.5-7.4
			c0.2-0.8,1-2.6,0.8-3.4c-0.6-2.5-4.3,4.4-4.7,3.1c0,0,0.6,0,1.6,0.1c0.9,0,1.8,0.1,2.7,0.1c2.5,0,5.2-0.3,7.6-1.3
			c9.8-4.1,11.7-15.5,2.9-21.9c-41-29.8-82-59.7-123-89.5c-4.8-3.5-12.2-1.3-15.5,3.1c-3.9,5.2-2.9,10.9,0.9,15.8
			c6.4,8.2,12.4,16.8,18,25.6c2.8,4.4,5.6,8.9,8.2,13.5c2,3.5,4.6,7.3,4.8,11.3c6.8-2.8,13.7-5.7,20.5-8.5
			c-15.4-13.8-30.9-27.5-46.3-41.3c-9.3-8.3-22.1-0.1-20.1,11.7c4.3,24.9,22.3,44.3,28.3,68.6c7.7-2.1,15.4-4.3,23.1-6.4
			c-3.8-11-6.9-22.3-9.1-33.8c-6.7,3.9-13.4,7.8-20.1,11.7c16.6,20.5,28.9,44.5,36.5,69.7c7.3-3.1,14.6-6.2,21.9-9.2
			c-15.7-23.9-28.6-49.5-38.1-76.5c-2.2-6.1-8.2-10.2-14.8-8.4C429.4,468.4,424.8,475.4,426.9,481.5L426.9,481.5z"/>
	</g>
</g>
<g id="XMLID_297_">
	<g id="XMLID_824_">
		<path id="XMLID_792_" d="M461.7,532.6c5.9,4.3,9.1,13.8,12.4,20.2c4.7,9.3,9.2,18.7,13.4,28.2c4,8.8,7.7,17.7,11.3,26.8
			c3.6,9.2,8.6,19.2,8.9,29.3c7.9-1.1,15.7-2.1,23.6-3.2c-1.6-4.9-2.8-9.8-3.6-14.9c-1-6.4-9-10-14.8-8.4c-6.8,1.9-9.4,8.3-8.4,14.8
			c0.8,5.1,2,10,3.6,14.9c4.1,12.4,23.9,10.9,23.6-3.2c-0.3-12.3-4.9-23.5-9.4-34.8c-4.4-11.2-9.1-22.4-14.1-33.4
			c-4.7-10.4-9.6-20.6-14.7-30.7c-5.2-10.1-10.3-19.4-19.7-26.2c-5.2-3.8-13.4-0.9-16.4,4.3C453.8,522.2,456.4,528.7,461.7,532.6
			L461.7,532.6z"/>
	</g>
</g>
<g id="XMLID_298_">
	<g id="XMLID_818_">
		<path id="XMLID_786_" d="M510.3,537.5c1.3,13.5-0.3,26.4-4.7,39.3c7.7,0,15.4,0,23.1,0c-4.4-11.5-7.6-23.5-9-35.7
			c-1.7-15.4-22.4-15.5-24,0c-1.7,16.5-0.8,33,2.1,49.3c7.7-2.1,15.4-4.3,23.1-6.4c-2.8-8-5.7-16-8.5-24c-3.6-10.1-8.1-17.8-20.2-16
			c-5.6,0.8-8.3,6.8-8.8,11.6c-1.6,14.8-0.2,29.8,4,44c7.3-3.1,14.6-6.2,21.9-9.2c-6.9-11.1-13.1-22.6-18.6-34.5
			c-2.2-4.7-8.8-6.8-13.6-5.5c-5.3,1.5-8.5,6.3-8.8,11.6c-0.9,14.3,1,28.9,5.6,42.5c2.1,6.1,8.3,10.2,14.8,8.4
			c6.1-1.7,10.3-8.5,8.4-14.8c-2.8-9-5.7-18-10.3-26.2c-4.3-7.8-9.5-14.9-12.5-23.3c-6.1-17-11.2-35.1-28.1-44.7
			c-4.2-2.4-9.6-2.1-13.3,0.9c-4.1,3.3-5.1,7.6-4.3,12.6c1.4,9.2,7.2,16.5,11.5,24.4c4.1,7.5,7,15.5,10.1,23.4
			c7,18.1,16.4,34.7,25.5,51.7c8.8,16.4,14.6,33.2,18.3,51.5c3.4,16.4,2.9,38.3,18.9,48.2c8.4,5.2,17.2-1.8,18.1-10.4
			c2.8-26.4,5.6-52.8,11.9-78.6c2.8-11.7,6.1-23.4,11.6-34.2c5.6-11,12.4-21.5,14.9-33.8c1.3-6.3-1.8-13-8.4-14.8
			c-5.9-1.6-13.5,2-14.8,8.4c-2.3,11.4-9,20.8-14,31.1c-5.9,12.3-9.8,25.4-13,38.7c-6.5,27.3-9.4,55.3-12.3,83.1
			c6-3.5,12-6.9,18.1-10.4c0.6,0.7,0.3,0.5-0.6-0.5c0.5,0.8,0.4,0.6-0.4-0.7c-0.7-1.2-0.7-1.4-1.3-3.4c-0.9-3.4-1.4-6.9-2-10.3
			c-1.5-9-3.1-18.1-5.2-27c-4.2-17.9-11.1-34.6-19.8-50.7c-8.2-15.2-16.6-30-22.9-46.1c-3.4-8.7-6.7-17.6-11.1-25.9
			c-3.5-6.7-8.8-12.7-9.9-20.2c-5.9,4.5-11.8,9-17.6,13.6c12,6.8,14.1,23.6,19,35.5c3.2,8,7.7,15,12.1,22.4c4,7,6.4,14.4,8.8,22
			c7.7-2.1,15.4-4.3,23.1-6.4c-4-11.8-5.5-23.6-4.7-36.1c-7.5,2-14.9,4-22.4,6.1c5.5,11.8,11.8,23.3,18.6,34.5
			c7,11.3,25.9,4.1,21.9-9.2c-3.7-12.4-4.6-24.8-3.2-37.6c-2.9,3.9-5.9,7.7-8.8,11.6c0.3,0,0.7-0.1,1-0.1c-3.1-0.4-6.2-0.8-9.2-1.2
			c-0.2-0.1-1.8-2.2-2-2c-0.1,0.1,1.2,3.2,1.3,3.6c0.9,2.7,1.9,5.3,2.8,8c1.8,5,3.6,10.1,5.4,15.1c5.2,14.7,25.8,8.8,23.1-6.4
			c-2.5-14.2-2.7-28.6-1.2-43c-8,0-16,0-24,0c1.6,14.5,4.6,28.5,9.8,42.1c4.2,11.1,19.1,11.6,23.1,0c5.1-14.6,7-30.3,5.6-45.6
			c-0.6-6.5-5.1-12-12-12C516.3,525.5,509.7,531,510.3,537.5L510.3,537.5z"/>
	</g>
</g>
<g id="XMLID_299_">
	<g id="XMLID_812_">
		<path id="XMLID_780_" d="M466.7,459.7c43.4,29.8,88.4,57,135,81.4c11.9,6.2,24.3-8.9,14.5-18.8c-1.1-1.1-2.2-2.2-3.2-3.3
			c-10.8-11.1-27.8,5.9-17,17c1.1,1.1,2.2,2.2,3.2,3.3c4.8-6.3,9.7-12.6,14.5-18.8c-46.6-24.5-91.7-51.7-135-81.4
			c-5.3-3.7-13.3-1-16.4,4.3C458.9,449.3,461.3,456.1,466.7,459.7L466.7,459.7z"/>
	</g>
</g>
<g id="XMLID_300_">
	<g id="XMLID_806_">
		<path id="XMLID_774_" d="M420.2,428.6c17.9,7.4,35.3,15.9,52.1,25.4c16.8,9.5,32.7,20.5,48.9,30.9c14.9,9.6,30.7,16.6,46.9,23.7
			c15,6.6,30.3,13.6,42.4,24.9c11.2,10.6,28.3-6.4,17-17c-20.6-19.4-47.3-27.6-72.2-39.8c-13.6-6.7-26-15.2-38.6-23.6
			c-13.1-8.7-26.5-16.9-40.3-24.3c-16.1-8.7-32.8-16.4-49.7-23.3c-6-2.5-13.2,2.7-14.8,8.4C409.9,420.7,414.2,426.1,420.2,428.6
			L420.2,428.6z"/>
	</g>
</g>
<g id="XMLID_301_">
	<g id="XMLID_800_">
		<path id="XMLID_768_" d="M390.8,402.3c2.1,5.3,4.3,10.7,6.4,16c7.3-3.1,14.6-6.2,21.9-9.2c-8-10.8-15.3-23.7-26.4-31.5
			c-4.3-3-11-1.7-14.5,1.9c-3.9,3.9-4.3,9.8-1.9,14.5c5.7,11.3,11.4,22.6,17.2,33.9c5.5,10.9,11.3,30.5,27.1,23.2
			c3.6-1.7,6.1-6.5,5.9-10.4c0-0.2,0-0.3,0-0.5c-0.5-15.4-24.5-15.5-24,0c0,0.2,0,0.3,0,0.5c2-3.5,4-6.9,5.9-10.4
			c-0.2,0.1-0.3,0.2-0.5,0.2c4,0,8.1,0,12.1,0c-0.2-0.1-0.3-0.2-0.5-0.3c1.4,1.4,2.9,2.9,4.3,4.3c-5.1-8.1-8.9-17.3-13.3-25.8
			c-4.5-9-9.1-17.9-13.6-26.9c-5.5,5.5-10.9,10.9-16.4,16.4c3.2,2.2,5.6,6.3,7.9,9.4c3.3,4.5,6.6,9,10,13.5c3.6,4.8,9.1,7.5,15,4.9
			c5-2.2,9.2-8.5,6.9-14.2c-2.1-5.3-4.3-10.7-6.4-16c-2.4-6-8-10.2-14.8-8.4C393.4,389.1,388.3,396.2,390.8,402.3L390.8,402.3z"/>
	</g>
</g>
<g id="XMLID_302_">
	<g id="XMLID_794_">
		<path id="XMLID_762_" d="M410.5,407c15.4,0,15.5-24,0-24C395.1,383,395,407,410.5,407L410.5,407z"/>
	</g>
</g>
<g id="XMLID_303_">
	<g id="XMLID_788_">
		<path id="XMLID_756_" d="M408.2,406.5c1.9,3.7,4.5,7.2,7.7,9.9c3.6,3.2,8.5,4.5,13.1,2.5c4-1.7,7.9-6.2,7.4-11
			c-0.2-1.4-0.3-2.8-0.5-4.2c-6,3.5-12,6.9-18.1,10.4c21.5,11.5,45.6,21.7,63.1,39.1c10.9,10.9,27.9-6,17-17
			c-19-19-44.5-30.4-67.9-42.9c-7.2-3.9-19.1,0.8-18.1,10.4c0.2,1.4,0.3,2.8,0.5,4.2c6.8-2.8,13.7-5.7,20.5-8.5
			c-1.8-1.6-2.8-2.9-3.9-5.1c-2.9-5.8-11.1-7.4-16.4-4.3C406.6,393.5,405.2,400.7,408.2,406.5L408.2,406.5z"/>
	</g>
</g>
<g id="XMLID_304_">
	<g id="XMLID_782_">
		<path id="XMLID_750_" d="M653.5,545.6c-13.7,1.5-27.4,3.1-41.1,4.6c-13.8,1.5-27.5,3.1-41.4,2.5c-6.5-0.3-12,5.7-12,12
			c0,6.7,5.5,11.7,12,12c13.9,0.6,27.6-1,41.4-2.5c13.7-1.5,27.4-3.1,41.1-4.6c6.4-0.7,12-5,12-12
			C665.5,551.7,660,544.9,653.5,545.6L653.5,545.6z"/>
	</g>
</g>
<g id="XMLID_305_">
	<g id="XMLID_776_">
		<path id="XMLID_744_" d="M495.9,605.5c0.4,4.5,0.4,8.9-0.5,13.3c6.7-1.8,13.4-3.5,20.1-5.3c-2.4-2.2-3.1-3.5-3.6-6.8
			c-7.3,3.1-14.6,6.2-21.9,9.2c4.7,11,8.6,22.4,12,33.9c3.8,12.9,23.6,10.6,23.6-3.2c0-25,0-50,0-75c0-12.3-0.1-24.5,0-36.8
			c0-4.8,0-9.7,1.3-14.4c0.6-2.1,1.1-3.5,2.4-5.4c-0.3,0.5,0.9-1.3,0.9-1.1c0.7-2.2,2.9,0-1.5-0.5c-3.5-2-6.9-4-10.4-5.9
			c-0.7-2.4-0.9-2.4-0.6,0.1c0,1.3,0,2.6,0,3.8c-0.1,2.2-0.2,4.5-0.3,6.7c-0.3,4.4-0.9,8.7-1.7,13c-1.2,6.4,1.7,12.9,8.4,14.8
			c5.8,1.6,13.6-2,14.8-8.4c1.7-9.2,2.8-18.6,2.9-28c0.1-5,0.2-9.9-2.6-14.2c-3.5-5.4-9.9-7.2-15.8-5.2c-18,6.1-21.4,28.4-21.5,44.6
			c-0.2,37.3,0,74.5,0,111.8c7.9-1.1,15.7-2.1,23.6-3.2c-4-13.5-8.9-26.7-14.4-39.6c-2.3-5.4-10.1-7.1-15-4.9
			c-5.8,2.6-8,8.1-6.9,14.2c1.1,6.7,4.7,12.9,9.8,17.3c6.3,5.6,18.2,4.1,20.1-5.3c1.3-6.5,1.9-13,1.3-19.7c-0.6-6.5-5.1-12-12-12
			C501.8,593.5,495.3,599,495.9,605.5L495.9,605.5z"/>
	</g>
</g>
<g id="XMLID_306_">
	<g id="XMLID_770_">
		<path id="XMLID_738_" d="M507.4,462.6c5.8,5.5,12.2,10.3,19.1,14.3c4.6,2.7,10.8,1.9,14.5-1.9c3.4-3.4,5.1-10.4,1.9-14.5
			c-8.4-11-20.3-14.7-31.8-21.5c-11.5-6.8-22.3-14.4-35.3-18.5c-1.1,7.9-2.1,15.7-3.2,23.6c2-0.2,1.9-0.2,3.6,1
			c4-6.9,8.1-13.8,12.1-20.7c-3.2-1.4-6.3-2.9-9.3-4.8c-13.3-8-25.3,12.7-12.1,20.7c3,1.8,6.1,3.4,9.3,4.8c6,2.5,12.9,1.8,16.4-4.3
			c3.5-6.1,1-12.6-4.3-16.4c-4.4-3.2-10.2-4.8-15.7-4.3c-13.2,1.2-16.6,19.3-3.2,23.6c10.2,3.2,19,9.7,28.1,15.2
			c4.4,2.7,9,5,13.6,7.2c3.5,1.7,8.8,3.6,10.9,6.5c5.5-5.5,10.9-10.9,16.4-16.4c-5.2-3-9.8-6.4-14.2-10.6
			C513.1,435.1,496.1,452,507.4,462.6L507.4,462.6z"/>
	</g>
</g>
<g id="XMLID_307_">
	<g id="XMLID_764_">
		<path id="XMLID_732_" d="M539.6,589.7c0.6,5.5-4,11.1-6.2,16.1c-2.7,6.3-4.6,12.7-5.7,19.5c-1,6.4,1.6,12.9,8.4,14.8
			c5.7,1.6,13.8-1.9,14.8-8.4c1-6.6,2.7-13.1,5.7-19.1c3.6-7.3,7.9-14.4,7-22.9c-0.7-6.4-5-12-12-12
			C545.6,577.7,538.9,583.2,539.6,589.7L539.6,589.7z"/>
	</g>
</g>
<g id="XMLID_308_">
	<g id="XMLID_758_">
		<path id="XMLID_726_" d="M533.8,655.8c15.4,0,15.5-24,0-24C518.4,631.8,518.4,655.8,533.8,655.8L533.8,655.8z"/>
	</g>
</g>
<g id="XMLID_309_">
	<g id="XMLID_752_">
		<path id="XMLID_720_" d="M539,656.7c15.4,0,15.5-24,0-24C523.6,632.7,523.5,656.7,539,656.7L539,656.7z"/>
	</g>
</g>
<g id="XMLID_310_">
	<g id="XMLID_746_">
		<path id="XMLID_714_" d="M551.5,642.2c0-0.1,0-0.1,0-0.2c0.1-1.7-0.3-3.2-1-4.6c-0.5-1.5-1.3-2.8-2.5-3.9c-1.1-1.2-2.4-2-3.9-2.5
			c-1.4-0.8-3-1.1-4.6-1c-1.1,0.1-2.1,0.3-3.2,0.4c-2,0.6-3.8,1.6-5.3,3.1c-0.6,0.8-1.3,1.6-1.9,2.4c-1.1,1.9-1.6,3.9-1.6,6.1
			c0,0.1,0,0.1,0,0.2c-0.1,1.7,0.3,3.2,1,4.6c0.5,1.5,1.3,2.8,2.5,3.9c1.1,1.2,2.4,2,3.9,2.5c1.4,0.8,3,1.1,4.6,1
			c1.1-0.1,2.1-0.3,3.2-0.4c2-0.6,3.8-1.6,5.3-3.1c0.6-0.8,1.3-1.6,1.9-2.4C550.9,646.4,551.5,644.3,551.5,642.2L551.5,642.2z"/>
	</g>
</g>
<g id="XMLID_311_">
	<g id="XMLID_740_">
		<path id="XMLID_708_" d="M552.1,641.9c0.1-0.4,0.2-0.8,0.3-1.2c0.2-1.3,0.5-2.8,0.5-4.2c0.1-1.7-0.3-3.2-1-4.6
			c-0.5-1.5-1.3-2.8-2.5-3.9c-1.1-1.2-2.4-2-3.9-2.5c-1.4-0.8-3-1.1-4.6-1c-1.1,0.1-2.1,0.3-3.2,0.4c-2,0.6-3.8,1.6-5.3,3.1
			c-0.6,0.8-1.3,1.6-1.9,2.4c-1.1,1.9-1.6,3.9-1.6,6.1c0,0.3,0,0.6,0,0.9c0.1-1.1,0.3-2.1,0.4-3.2c-0.1,0.4-0.2,0.8-0.3,1.2
			c-0.5,1.6-0.6,3.2-0.2,4.8c0.1,1.6,0.5,3.1,1.4,4.5c0.8,1.4,1.8,2.5,3.1,3.4c1.2,1.1,2.5,1.8,4.1,2.1c1.1,0.1,2.1,0.3,3.2,0.4
			c2.2,0,4.2-0.6,6.1-1.6c0.8-0.6,1.6-1.3,2.4-1.9C550.5,645.7,551.5,643.9,552.1,641.9L552.1,641.9z"/>
	</g>
</g>
<g id="XMLID_312_">
	<g id="XMLID_734_">
		<path id="XMLID_702_" d="M552.8,632.3c0-0.1,0-0.1,0-0.2c0.1-1.7-0.3-3.2-1-4.6c-0.5-1.5-1.3-2.8-2.5-3.9c-1.1-1.2-2.4-2-3.9-2.5
			c-1.4-0.8-3-1.1-4.6-1c-1.1,0.1-2.1,0.3-3.2,0.4c-2,0.6-3.8,1.6-5.3,3.1c-0.6,0.8-1.3,1.6-1.9,2.4c-1.1,1.9-1.6,3.9-1.6,6.1
			c0,0.1,0,0.1,0,0.2c-0.1,1.7,0.3,3.2,1,4.6c0.5,1.5,1.3,2.8,2.5,3.9c1.1,1.2,2.4,2,3.9,2.5c1.4,0.8,3,1.1,4.6,1
			c1.1-0.1,2.1-0.3,3.2-0.4c2-0.6,3.8-1.6,5.3-3.1c0.6-0.8,1.3-1.6,1.9-2.4C552.3,636.5,552.8,634.5,552.8,632.3L552.8,632.3z"/>
	</g>
</g>
<g id="XMLID_313_">
	<g id="XMLID_728_">
		<path id="XMLID_696_" d="M552.8,629.3c0-0.1,0-0.2,0-0.3c0.1-1.7-0.3-3.2-1-4.6c-0.5-1.5-1.3-2.8-2.5-3.9c-1.1-1.2-2.4-2-3.9-2.5
			c-1.4-0.8-3-1.1-4.6-1c-1.1,0.1-2.1,0.3-3.2,0.4c-2,0.6-3.8,1.6-5.3,3.1c-0.6,0.8-1.3,1.6-1.9,2.4c-1.1,1.9-1.6,3.9-1.6,6.1
			c0,0.1,0,0.2,0,0.3c-0.1,1.7,0.3,3.2,1,4.6c0.5,1.5,1.3,2.8,2.5,3.9c1.1,1.2,2.4,2,3.9,2.5c1.4,0.8,3,1.1,4.6,1
			c1.1-0.1,2.1-0.3,3.2-0.4c2-0.6,3.8-1.6,5.3-3.1c0.6-0.8,1.3-1.6,1.9-2.4C552.3,633.5,552.8,631.5,552.8,629.3L552.8,629.3z"/>
	</g>
</g>
<g id="XMLID_314_">
	<g id="XMLID_722_">
		<path id="XMLID_690_" d="M552.8,625.3c0-0.1,0-0.1,0-0.2c0.1-1.7-0.3-3.2-1-4.6c-0.5-1.5-1.3-2.8-2.5-3.9c-1.1-1.2-2.4-2-3.9-2.5
			c-1.4-0.8-3-1.1-4.6-1c-1.1,0.1-2.1,0.3-3.2,0.4c-2,0.6-3.8,1.6-5.3,3.1c-0.6,0.8-1.3,1.6-1.9,2.4c-1.1,1.9-1.6,3.9-1.6,6.1
			c0,0.1,0,0.1,0,0.2c-0.1,1.7,0.3,3.2,1,4.6c0.5,1.5,1.3,2.8,2.5,3.9c1.1,1.2,2.4,2,3.9,2.5c1.4,0.8,3,1.1,4.6,1
			c1.1-0.1,2.1-0.3,3.2-0.4c2-0.6,3.8-1.6,5.3-3.1c0.6-0.8,1.3-1.6,1.9-2.4C552.3,629.5,552.8,627.5,552.8,625.3L552.8,625.3z"/>
	</g>
</g>
<g id="XMLID_315_">
	<g id="XMLID_716_">
		<path id="XMLID_684_" d="M540.8,635.5c15.4,0,15.5-24,0-24C525.4,611.5,525.4,635.5,540.8,635.5L540.8,635.5z"/>
	</g>
</g>
<g id="XMLID_316_">
	<g id="XMLID_710_">
		<path id="XMLID_678_" d="M541.2,634.5c15.4,0,15.5-24,0-24C525.7,610.5,525.7,634.5,541.2,634.5L541.2,634.5z"/>
	</g>
</g>
<g id="XMLID_317_">
	<g id="XMLID_704_">
		<path id="XMLID_672_" d="M541.8,634.3c15.4,0,15.5-24,0-24C526.4,610.3,526.4,634.3,541.8,634.3L541.8,634.3z"/>
	</g>
</g>
<g id="XMLID_318_">
	<g id="XMLID_698_">
		<path id="XMLID_666_" d="M530,622.3c0,0.1,0,0.1,0,0.2c-0.1,1.7,0.3,3.2,1,4.6c0.5,1.5,1.3,2.8,2.5,3.9c1.1,1.2,2.4,2,3.9,2.5
			c1.4,0.8,3,1.1,4.6,1c1.1-0.1,2.1-0.3,3.2-0.4c2-0.6,3.8-1.6,5.3-3.1c0.6-0.8,1.3-1.6,1.9-2.4c1.1-1.9,1.6-3.9,1.6-6.1
			c0-0.1,0-0.1,0-0.2c0.1-1.7-0.3-3.2-1-4.6c-0.5-1.5-1.3-2.8-2.5-3.9c-1.1-1.2-2.4-2-3.9-2.5c-1.4-0.8-3-1.1-4.6-1
			c-1.1,0.1-2.1,0.3-3.2,0.4c-2,0.6-3.8,1.6-5.3,3.1c-0.6,0.8-1.3,1.6-1.9,2.4C530.6,618.1,530,620.2,530,622.3L530,622.3z"/>
	</g>
</g>
<g id="XMLID_319_">
	<g id="XMLID_692_">
		<path id="XMLID_660_" d="M551.3,630.8c0.1-0.1,0.1-0.1,0.2-0.2c1.2-1.1,2-2.4,2.5-3.9c0.8-1.4,1.1-3,1-4.6c0.1-1.7-0.3-3.2-1-4.6
			c-0.5-1.5-1.3-2.8-2.5-3.9c-0.8-0.6-1.6-1.3-2.4-1.9c-1.9-1.1-3.9-1.6-6.1-1.6c-1.1,0.1-2.1,0.3-3.2,0.4c-2,0.6-3.8,1.6-5.3,3.1
			c-0.1,0.1-0.1,0.1-0.2,0.2c-1.2,1.1-2,2.4-2.5,3.9c-0.8,1.4-1.1,3-1,4.6c-0.1,1.7,0.3,3.2,1,4.6c0.5,1.5,1.3,2.8,2.5,3.9
			c0.8,0.6,1.6,1.3,2.4,1.9c1.9,1.1,3.9,1.6,6.1,1.6c1.1-0.1,2.1-0.3,3.2-0.4C548.1,633.3,549.8,632.3,551.3,630.8L551.3,630.8z"/>
	</g>
</g>
<g id="XMLID_320_">
	<g id="XMLID_686_">
		<path id="XMLID_654_" d="M544.3,632c0.1,0,0.1,0,0.2,0c1.7,0.1,3.2-0.3,4.6-1c1.5-0.5,2.8-1.3,3.9-2.5c1.2-1.1,2-2.4,2.5-3.9
			c0.8-1.4,1.1-3,1-4.6c-0.1-1.1-0.3-2.1-0.4-3.2c-0.6-2-1.6-3.8-3.1-5.3c-0.8-0.6-1.6-1.3-2.4-1.9c-1.9-1.1-3.9-1.6-6.1-1.6
			c-0.1,0-0.1,0-0.2,0c-1.7-0.1-3.2,0.3-4.6,1c-1.5,0.5-2.8,1.3-3.9,2.5c-1.2,1.1-2,2.4-2.5,3.9c-0.8,1.4-1.1,3-1,4.6
			c0.1,1.1,0.3,2.1,0.4,3.2c0.6,2,1.6,3.8,3.1,5.3c0.8,0.6,1.6,1.3,2.4,1.9C540.1,631.4,542.2,632,544.3,632L544.3,632z"/>
	</g>
</g>
<g id="XMLID_321_">
	<g id="XMLID_680_">
		<path id="XMLID_648_" d="M557.2,618.8c0-0.2,0-0.3,0-0.5c0.1-1.7-0.3-3.2-1-4.6c-0.5-1.5-1.3-2.8-2.5-3.9c-1.1-1.2-2.4-2-3.9-2.5
			c-1.4-0.8-3-1.1-4.6-1c-1.1,0.1-2.1,0.3-3.2,0.4c-2,0.6-3.8,1.6-5.3,3.1c-0.6,0.8-1.3,1.6-1.9,2.4c-1.1,1.9-1.6,3.9-1.6,6.1
			c0,0.2,0,0.3,0,0.5c-0.1,1.7,0.3,3.2,1,4.6c0.5,1.5,1.3,2.8,2.5,3.9c1.1,1.2,2.4,2,3.9,2.5c1.4,0.8,3,1.1,4.6,1
			c1.1-0.1,2.1-0.3,3.2-0.4c2-0.6,3.8-1.6,5.3-3.1c0.6-0.8,1.3-1.6,1.9-2.4C556.6,623,557.2,621,557.2,618.8L557.2,618.8z"/>
	</g>
</g>
<g id="XMLID_322_">
	<g id="XMLID_674_">
		<path id="XMLID_642_" d="M557.1,619.2c0.1-0.3,0.1-0.6,0.2-0.8c0.5-1.6,0.6-3.2,0.2-4.8c-0.1-1.6-0.5-3.1-1.4-4.5
			c-0.8-1.4-1.8-2.5-3.1-3.4c-1.2-1.1-2.5-1.8-4.1-2.1c-1.1-0.1-2.1-0.3-3.2-0.4c-2.2,0-4.2,0.6-6.1,1.6c-0.8,0.6-1.6,1.3-2.4,1.9
			c-1.5,1.5-2.5,3.3-3.1,5.3c-0.1,0.3-0.1,0.6-0.2,0.8c-0.5,1.6-0.6,3.2-0.2,4.8c0.1,1.6,0.5,3.1,1.4,4.5c0.8,1.4,1.8,2.5,3.1,3.4
			c1.2,1.1,2.5,1.8,4.1,2.1c1.1,0.1,2.1,0.3,3.2,0.4c2.2,0,4.2-0.6,6.1-1.6c0.8-0.6,1.6-1.3,2.4-1.9
			C555.5,623,556.5,621.2,557.1,619.2L557.1,619.2z"/>
	</g>
</g>
<g id="XMLID_323_">
	<g id="XMLID_668_">
		<path id="XMLID_636_" d="M546,626c15.4,0,15.5-24,0-24C530.6,602,530.5,626,546,626L546,626z"/>
	</g>
</g>
<g id="XMLID_324_">
	<g id="XMLID_662_">
		<path id="XMLID_630_" d="M555,621.1c0,0,0.1-0.1,0.1-0.1c0.6-0.8,1.3-1.6,1.9-2.4c0.3-0.6,0.4-0.9,0.8-1.7
			c0.3-0.7,0.5-1.1,0.7-1.7c0.1-0.6,0.2-1.1,0.2-1.7c0.2-0.6,0.2-1.2,0.2-1.8c0.1-1.7-0.3-3.2-1-4.6c-0.5-1.5-1.3-2.8-2.5-3.9
			c-1.1-1.2-2.4-2-3.9-2.5c-1.4-0.8-3-1.1-4.6-1c-1.1,0.1-2.1,0.3-3.2,0.4c-2,0.6-3.8,1.6-5.3,3.1c-0.6,0.8-1.3,1.6-1.9,2.4
			c-1.1,1.9-1.6,3.9-1.6,6.1c0,0.1,0,0.1,0,0.2c0.1-1.1,0.3-2.1,0.4-3.2c0,0.1,0,0.2-0.1,0.3c0.4-1,0.8-1.9,1.2-2.9
			c0,0.1-0.1,0.2-0.2,0.3c0.6-0.8,1.3-1.6,1.9-2.4c0,0-0.1,0.1-0.1,0.1c-1.2,1.1-2,2.4-2.5,3.9c-0.8,1.4-1.1,3-1,4.6
			c-0.1,1.7,0.3,3.2,1,4.6c0.5,1.5,1.3,2.8,2.5,3.9c0.8,0.6,1.6,1.3,2.4,1.9c1.9,1.1,3.9,1.6,6.1,1.6c1.1-0.1,2.1-0.3,3.2-0.4
			C551.7,623.7,553.5,622.6,555,621.1L555,621.1z"/>
	</g>
</g>
<g id="XMLID_325_">
	<g id="XMLID_656_">
		<path id="XMLID_624_" d="M547.3,623c15.4,0,15.5-24,0-24C531.9,599,531.9,623,547.3,623L547.3,623z"/>
	</g>
</g>
<g id="XMLID_326_">
	<g id="XMLID_650_">
		<path id="XMLID_618_" d="M547.5,621.3c15.4,0,15.5-24,0-24C532.1,597.3,532,621.3,547.5,621.3L547.5,621.3z"/>
	</g>
</g>
<g id="XMLID_327_">
	<g id="XMLID_644_">
		<path id="XMLID_612_" d="M524.5,659.7c0.2,0.3,0.3,0.7,0.5,1c-0.5-2-1.1-4-1.6-6.1c1-2.7,0.8-3-0.4-0.8c-0.6,0.9-1.1,1.9-1.6,2.8
			c-0.8,1.5-1.5,3.1-2.2,4.6c-1.9,4.1-3.8,8.3-5.3,12.5c-1.4,3.7-1.9,7.6-3.1,11.3c-1.3,3.9-3.4,7-3.2,11.4
			c0.5,11.8,16.1,16.4,22.4,6.1c4.2-6.9,7.6-14.1,10.6-21.6c2.2-5.5-2-12.2-6.9-14.2c-5.4-2.2-12-0.4-15,4.9
			c-2.2,3.8-4,7.8-5.6,11.8c-1,2.6-2,7.2-3.1,9c-8.1,13.2,12.6,25.3,20.7,12.1c2.2-3.5,2.9-7.4,4.2-11.3c1.1-3.4,2.7-6.4,4.5-9.5
			c-7.3-3.1-14.6-6.2-21.9-9.2c-2.2,5.5-5.1,10.8-8.2,15.9c7.5,2,14.9,4,22.4,6.1c-0.8,2.7-0.8,3,0.1,0.8c0.7-1.4,1.2-2.9,1.8-4.3
			c0.6-2,1-4.1,1.5-6.1c1-3.8,2.3-7.5,3.9-11.1c1.8-3.9,3.8-7.6,5.9-11.3c3.3-5.8,3.3-10.9,0.6-17c-2.6-5.9-11.3-7.3-16.4-4.3
			C522.7,646.8,521.9,653.7,524.5,659.7L524.5,659.7z"/>
	</g>
</g>
<g id="XMLID_328_">
	<g id="XMLID_638_">
		<path id="XMLID_606_" d="M662.2,560.9c1-0.3,2.2-0.5,3.1-0.9c1.3-0.5,3.7,1.2-0.5-0.9c-2-3.5-4-6.9-5.9-10.4c0,0.2,0,0.4,0.1,0.5
			c0.5-2,1.1-4,1.6-6.1c1.7-3,3.6-2.6-0.2-2c2.1,7.7,4.3,15.4,6.4,23.1c2.5-0.5,5-1.4,7.3-2.6c0.9-0.5,1.9-0.9,2.7-1.6
			c2.7-2.1-3-0.5-0.4-0.2c5.4,0.5,11.8-1.2,17.1-2.3c11.3-2.2,11.6-21.2,0-23.1c-1.3-0.2-2.5-0.4-3.8-0.6c-1.8-0.8-2.3-0.7-1.6,0.2
			c2,3.5,4,6.9,5.9,10.4c0-0.2,0.1-0.4,0.1-0.6c-0.5,2-1.1,4-1.6,6.1c0,0.1,0,0.2,0,0.3c-2.8,1.2-5.7,2.3-8.5,3.5
			c0.4,0,0.9-0.1,1.3-0.1c-2-0.5-4-1.1-6.1-1.6c0.3,0.2,0.6,0.4,0.8,0.6c-1.4-1.4-2.9-2.9-4.3-4.3c0.2,0.3,0.3,0.6,0.5,0.9
			c-0.5-2-1.1-4-1.6-6.1c0.3-1.1,0.6-2.3,0.9-3.4c-0.4,0.5-0.8,0.9-1.3,1.2c-0.9,0.3-2.2,1.3-3,1.7c-5.2,2.7-7.2,9.8-4.9,15
			c2.2,4.9,8.5,9.2,14.2,6.9c5.9-2.4,11.9-4.8,17.8-7.3c-4.9-2.8-9.8-5.6-14.8-8.4c0.1,0.4,0.2,0.8,0.3,1.3c0-2.1,0-4.3,0-6.4
			c0.1-0.2,0.2-0.3,0.2-0.5c-2.7,3.9-1.8,9.9,0.9,13.3c3.3,4.1,7.6,5,12.6,4.3c0.9,0.1,1.7,0.2,2.6,0.2c6.5,0.4,12-5.8,12-12
			c0-6.8-5.5-11.6-12-12c-3.1-0.2-5.9,0.2-9,0.7c4.5,5.9,9,11.8,13.6,17.6c2.7-3.8,3-8.4,1.9-12.9c-1.4-5.8-8.9-10.8-14.8-8.4
			c-5.9,2.4-11.9,4.8-17.8,7.3c3.1,7.3,6.2,14.6,9.2,21.9c9.3-4.8,19.8-15.5,13.4-26.7c-3.2-5.6-9.7-8.2-16-6.5
			c-6.7,1.8-10,8.1-10.8,14.4c-0.5,3.9,2.6,8.6,5.9,10.4c3.5,1.9,7.3,2.2,11.1,2.8c0-7.7,0-15.4,0-23.1c-4.8,0.9-9.6,1.1-14.4,1.8
			c-4.8,0.6-7.9,4-12.3,4.9c-6.3,1.4-10,8.8-8.4,14.8c1.9,6.8,8.3,9.5,14.8,8.4c8.9-1.5,18.6-8.5,15.7-18.8
			c-3.1-11.1-17.9-10.7-26.6-7.7c-6.1,2.1-10.2,8.2-8.4,14.8C649.1,558.4,656.1,563,662.2,560.9L662.2,560.9z"/>
	</g>
</g>
<g id="XMLID_329_">
	<g id="XMLID_632_">
		<path id="XMLID_600_" d="M687.3,545.5c2-4.7,2.5-8.9,0.1-13.5c-2-3.8-6.1-5.5-9.8-7c-1.9-0.7-3.9-1.3-5.8-1.8
			c-0.8-0.3-0.6-0.2,0.6,0.3c-0.4-0.2-0.9-0.4-1.3-0.7c-0.4-0.2-0.8-0.5-1.2-0.8c1.1,0.9,1.2,1,0.2,0.1c-4.8,6.3-9.7,12.6-14.5,18.8
			c2.2,1,4.5,2,6.6,3.1c-1.4-5.5-2.9-10.9-4.3-16.4c0,0.1-0.1,0.1-0.1,0.2c2.4-1.8,4.8-3.7,7.2-5.5c-0.1,0-0.2,0-0.2,0.1
			c-6.1,1.4-10.3,8.8-8.4,14.8c2.1,6.4,8.2,9.9,14.8,8.4c2.9-0.7,6.2-3,7.5-5.8c2.7-5.6,1.9-13.3-4.3-16.4c-2.2-1.1-4.4-2.1-6.6-3.1
			c-5.6-2.4-11.5-2-15.5,3.1c-3.4,4.4-3.6,11.8,0.9,15.8c3.5,3,6.7,5.1,11,6.7c1.2,0.5,2.5,0.9,3.8,1.3c0.8,0.2,1.6,0.5,2.4,0.7
			c2.3,0.8,1.6,1.7-1.7-1.3c-1-1.8-2.1-3.5-3.1-5.3c0.1,0.2,0.2,0.5,0.2,0.7c0.4-3.1,0.8-6.2,1.2-9.2c-0.1,0.2-0.2,0.4-0.3,0.7
			c-2.5,5.7-1.9,13.1,4.3,16.4C676.1,552.6,684.6,551.7,687.3,545.5L687.3,545.5z"/>
	</g>
</g>
<g id="XMLID_330_">
	<g id="XMLID_626_">
		<path id="XMLID_594_" d="M628.2,507.3c-0.7-4.3-3.1-8.3-6.3-11.2c-4.8,6.3-9.7,12.6-14.5,18.8c7.8,4.3,15.8,8.4,23.3,13.1
			c7.3,4.6,14.5,9.2,22.3,13c8.8,4.3,16.9-1.1,18.1-10.4c1-8.3-7-14.8-13.5-18.1c-6.5-3.4-14.6-4.9-21.6-6.9
			c-15.1-4.3-30.3-8.2-45.6-11.6c-6.3-1.4-13,1.9-14.8,8.4c-1.7,6,2,13.3,8.4,14.8c12.5,2.8,24.9,5.9,37.3,9.3
			c5.8,1.6,11.5,3.2,17.3,5c2.6,0.8,5.5,1.4,8,2.4c1.9,0.8-0.4-0.2,0,0c0.4,0.3,0.8,0.6,1.2,0.9c2.8,2.3,3.2,2.5,1.2,0.6
			c-0.5-2-1.1-4-1.6-6.1c-0.1,0.5-0.1,0.9-0.2,1.4c6-3.5,12-6.9,18.1-10.4c-7.8-3.8-14.9-8.4-22.3-13c-7.5-4.7-15.5-8.8-23.3-13.1
			c-11.5-6.4-25,9.5-14.5,18.8c2.5,2.2-0.4-2.6,0.2,0.7c1,6.4,9,10,14.8,8.4C626.7,520.2,629.2,513.7,628.2,507.3L628.2,507.3z"/>
	</g>
</g>
<g id="XMLID_331_">
	<g id="XMLID_620_">
		<path id="XMLID_588_" d="M534.1,479.6c6.1,6.3,13.6,6.9,21.2,9.9c3.4,1.4,6.5,3.7,9.6,5.6c4.1,2.6,8.2,4.6,12.7,6.4
			c11.6,4.6,19.7-12.2,11.7-20.1c-4.5-4.4-9.6-8.2-15.4-10.7c-3.1,7.3-6.2,14.6-9.2,21.9c6.9,2.7,12.4,6.3,18.6,10.2
			c6.4,4,13.2,7.5,19.9,10.9c5.3,2.7,11.8,1.9,15.5-3.1c3.5-4.6,3.5-11.6-0.9-15.8c-3.4-3.2-7.2-6.1-11.4-8.2
			c-2.3-1.2-4.8-2.2-7.2-3c-2-0.7-6.1-2.9-2.1,0.4c0,5.7,0,11.3,0,17c0.4-0.4,0.7-0.9,1.1-1.3c4.2-5,4.9-12.1,0-17
			c-4.3-4.3-12.8-5-17,0c-0.4,0.4-0.7,0.9-1.1,1.3c-3.8,4.6-5.4,12.6,0,17c6.4,5.1,14.6,5.2,20.7,10.8c4.8-6.3,9.7-12.6,14.5-18.8
			c-7.3-3.7-14.6-7.4-21.5-11.9c-3.3-2.1-6.4-4.6-9.9-6.3c-4.2-2.1-8.6-3.6-12.9-5.4c-12.5-5-21.7,16.4-9.2,21.9
			c4,1.8,7.4,3.9,10.5,7c3.9-6.7,7.8-13.4,11.7-20.1c-5.9-2.3-10.8-6.9-16.6-9.6c-3.3-1.5-6.6-2.7-10.1-3.7
			c-1.4-0.4-2.9-0.7-4.3-1.2c-2.4-1-0.2,0.6-2-1.3C540.3,451.5,523.3,468.5,534.1,479.6L534.1,479.6z"/>
	</g>
</g>
<g id="XMLID_332_">
	<g id="XMLID_614_">
		<path id="XMLID_582_" d="M537.8,475.5c0.9-1.6,1.3-2,2.9-2.9c-4,0-8.1,0-12.1,0c5.8,3.1,11.5,6.4,17,10c5.5,3.6,10.6,7.2,16.9,9.4
			c11.4,3.9,20.2-12.1,11.7-20.1c-5.3-4.9-11.4-8.5-18.5-10.2c-6.3-1.5-13,2-14.8,8.4c-1.7,6.1,2,13.3,8.4,14.8
			c3.1,0.7,5.6,1.8,7.9,4c3.9-6.7,7.8-13.4,11.7-20.1c-3.4-1.2-6.7-3.9-9.7-5.9c-4.2-2.8-8.6-5.5-13-8c-6-3.4-11.5-6.4-18.3-2.7
			c-4.6,2.5-8.3,6.6-10.9,11.1C509.4,476.9,530.2,489,537.8,475.5L537.8,475.5z"/>
	</g>
</g>
<g id="XMLID_335_">
	<g id="XMLID_608_">
		<path id="XMLID_576_" d="M375.8,377.1c0.3,1.2,0.7,2.5,1,3.7c3.9-1.1,7.7-2.1,11.6-3.2c-1.2-3.5-2.7-6.5-6.3-8.1
			c-3.9-1.7-9.3,0.2-9,5.2c0.1,3.2,0.9,5.8,2.2,8.7c2.3-2.9,4.5-5.9,6.8-8.8c-0.5-0.1-1.1-0.2-1.6-0.3c-4.3-0.7-8.8,2.6-7.4,7.4
			c0.5,1.7,1,2.8,2,4.3c3.2,4.7,11.2,3.3,11.2-3c0-0.9-0.8-4-0.2-4.6c-1.4,0.6-2.8,1.2-4.2,1.8c-2.6-0.3-1.3,0.1,0.4,1.2
			c0.9,0.6,1.9,1.2,2.9,1.8c2.4,1.5,4.9,2.9,7.3,4.2c4.5,2.5,8.2,5.8,13.2,7.3c5.7,1.7,10.2-5.9,5.8-10c-2.8-2.6-6.9-5.1-10.6-6
			c-7.5-1.8-10.7,9.8-3.2,11.6c1.6,0.4,4.1,1.8,5.3,2.9c1.9-3.3,3.9-6.7,5.8-10c-4-1.2-7.3-4.4-11-6.4c-4.1-2.3-7.9-5.1-12-7.3
			c-3.3-1.8-6.9-1.2-9.3,1.8c-2.9,3.7-2.3,7.6-2.3,11.9c3.7-1,7.5-2,11.2-3c-0.3-0.5-0.5-1-0.8-1.4c-2.5,2.5-4.9,4.9-7.4,7.4
			c0.5,0.1,1.1,0.2,1.6,0.3c5.3,0.8,9.1-3.8,6.8-8.8c-0.4-0.8-0.6-1.7-0.6-2.6c-3,1.7-6,3.5-9,5.2c0.3,0.3,0.5,0.6,0.8,0.9
			c2.5,7.2,13.7,4.3,11.6-3.2c-0.3-1.2-0.7-2.5-1-3.7C385.3,366.5,373.7,369.6,375.8,377.1L375.8,377.1z"/>
	</g>
</g>
<g id="XMLID_341_">
	<g id="XMLID_602_">
		<path id="XMLID_570_" d="M369.9,371.7c0.2,0.9,0.6,1.6,0.9,2.5c2.7-2.7,5.5-5.5,8.2-8.2c-0.1,0-0.1-0.1-0.2-0.1
			c0.4,0.3,0.8,0.6,1.2,0.9c-0.1-0.1-0.1-0.1-0.2-0.2c0.3,0.4,0.6,0.8,0.9,1.2c0-0.1-0.1-0.1-0.1-0.2c-2-3.8-8.4-4-10.4,0
			c-0.6,1.2-0.9,2.4-0.9,3.7c0,0.5-0.1,1-0.1,1.5c0,2.1,1,4.5,2.6,5.9c1.2,1,2.6,1.8,4.2,1.8c1.5,0,3.2-0.7,4.2-1.8
			c1-1.1,1.8-2.6,1.8-4.2c-0.1-1.5-0.6-3.2-1.8-4.2c-0.1-0.1-0.3-0.2-0.4-0.4c0.3,0.4,0.6,0.8,0.9,1.2c-0.2-0.2-0.3-0.4-0.4-0.7
			c0.2,0.5,0.4,1,0.6,1.4c-0.1-0.2-0.1-0.3-0.1-0.5c0.1,0.5,0.1,1.1,0.2,1.6c0-0.6,0.1-1.2,0.1-1.9c-0.1,0.5-0.1,1.1-0.2,1.6
			c0-0.1,0-0.2,0-0.2c-0.2,0.5-0.4,1-0.6,1.4c0-0.1,0.1-0.1,0.1-0.2c-3.5,0-6.9,0-10.4,0c0.6,1.2,1.6,2,2.6,2.7
			c2.2,1.4,5.5,1,7.3-0.9c0.7-0.8,1.2-1.7,1.5-2.6c0.5-1.6,0-3.1-0.6-4.6c0-0.1-0.1-0.2-0.1-0.2c0.2,0.5,0.4,1,0.6,1.4
			c-0.1-0.3-0.2-0.5-0.2-0.8c-0.7-3.1-4.4-5.2-7.4-4.2C370.9,365.4,369.1,368.5,369.9,371.7L369.9,371.7z"/>
	</g>
</g>
<g id="XMLID_342_">
	<g id="XMLID_596_">
		<path id="XMLID_564_" d="M364.5,362.4c1,3.3,4,5.5,5.8,8.4c1.6-1.2,3.1-2.4,4.7-3.6c-1.1-1.1-2.2-2.2-3.2-3.4
			c0.3,0.4,0.5,0.9,0.8,1.3c0-0.1,0-0.1-0.1-0.2c0,0.5,0,1.1,0,1.6c0-0.1,0.1-0.2,0.1-0.3c-0.3,0.4-0.5,0.9-0.8,1.3
			c-2-0.3-2.5-0.1-1.6,0.6c0.2,0.3,0.5,0.5,0.7,0.7c2.3,2.2,5.4-0.1,5-2.9c-0.4-2.7-3.4-4.6-5.9-3.1c-2.2,1.3-2.9,4.6-2.8,6.9
			c0,3.4,4.9,4.1,5.9,0.8c0.2-0.6,0.2-1.1,0.2-1.7c-0.2-3.8-6.2-3.9-6,0c0,0,0,0,0,0.1c2,0.3,3.9,0.5,5.9,0.8c0-0.7,0-1.7,0.5-2.2
			c-0.4,0.3-0.9,0.5-1.3,0.8c0.1,0,0.2-0.1,0.4-0.1c-0.5,0-1.1,0-1.6,0c-0.3-0.2-0.7-0.4-1-0.7c1.7-1,3.3-1.9,5-2.9
			c-1.1-1-2-2.1-3.5-2.5c-1.5-0.3-3.1,0-4.1,1.2c-2.8,3,1.2,6.1,3.2,8.2c2.3,2.5,6.6-0.8,4.7-3.6c-0.9-1.3-1.8-2.6-2.9-3.9
			c-0.8-0.9-2-1.9-2.4-3.1C369.2,357.1,363.4,358.7,364.5,362.4L364.5,362.4z"/>
	</g>
</g>
<g id="XMLID_343_">
	<g id="XMLID_590_">
		<path id="XMLID_558_" d="M471.7,608.2c-0.1,4.3,1.3,8.1,2.6,12.2c1.3,4.5,2.3,9.1,3.1,13.7c1.9-0.5,3.9-1.1,5.8-1.6
			c-2-7.8-4.4-15.5-7-23.1c-1.2-3.6-6.8-2.2-5.8,1.6c0.8,3.2,2.2,7.7,4,10.5c0,1.7,0.8,2.1,2.3,1.2c2,0.3,2.5-0.4,1.3-2
			c0-2-1.6-5-2.2-6.9c-1-3.2-5.8-2.6-5.9,0.8c-0.1,7.4,3,14.7,5.2,21.7c1.1,3.7,6.9,2.1,5.8-1.6c-2-6.4-5.1-13.4-5-20.1
			c-2,0.3-3.9,0.5-5.9,0.8c0.9,3.1,3.4,17.6,9.7,13.2c5.1-3.6-2.5-15.1-3.5-19.2c-1.9,0.5-3.9,1.1-5.8,1.6c2.6,7.6,5,15.3,7,23.1
			c1,3.8,6.4,2.1,5.8-1.6c-0.7-4-1.5-8.1-2.6-12.1c-1.1-4.1-2.9-8-2.8-12.3C477.8,604.3,471.8,604.3,471.7,608.2L471.7,608.2z"/>
	</g>
</g>
<g id="XMLID_348_">
	<g id="XMLID_584_">
		<path id="XMLID_552_" d="M475.2,634.3c4.9,7.4,6.4,16.8,9.3,25c2.9,8.4,6.4,16.6,10.3,24.7c2.5,5.2,10.3,0.7,7.8-4.5
			c-4.1-8.4-7.6-17.1-10.5-26c-2.6-8-4.2-16.6-9-23.7C479.7,625,471.9,629.5,475.2,634.3L475.2,634.3z"/>
	</g>
</g>
<g id="XMLID_350_">
	<g id="XMLID_578_">
		<path id="XMLID_546_" d="M478.8,615.8c-1-3.6-2.3-7-3.9-10.3c-2.2-4.5-10.1-1.3-8.2,3.5c1.2,3,2.3,5.9,3.5,8.9
			c2.7-1.2,5.5-2.3,8.2-3.5c-1.7-3.4-2.1-7.5-3.4-11.2c-1.3-3.6-2.9-7-4.9-10.3c-1.8-3-5.9-2.8-7.8,0c-2.2,3.2,0.6,8.4,1.5,11.7
			c1.6,5.6,3.3,11.1,5,16.7c1.7,5.5,10.4,3.2,8.7-2.4c-1.2-4-2.4-8-3.6-12c-0.5-1.9-1.1-3.7-1.6-5.6c-0.3-1.1-0.7-6-2.2-3.8
			c-2.6,0-5.2,0-7.8,0c4,6.9,4.8,14.5,8.2,21.4c2.2,4.5,10.1,1.3,8.2-3.5c-1.2-3-2.3-5.9-3.5-8.9c-2.7,1.2-5.5,2.3-8.2,3.5
			c1.3,2.6,2.2,5.3,3,8.1C471.6,623.7,480.3,621.4,478.8,615.8L478.8,615.8z"/>
	</g>
</g>
<g id="XMLID_355_">
	<g id="XMLID_572_">
		<path id="XMLID_538_" d="M466.5,589.7c-0.2,0.7-0.2,1.4-0.1,2.1c0,1,0.3,0.8,0.9-0.6c1.2-0.2,2.3-0.3,3.5-0.5
			c-0.9-0.3-2.6-3.2-3-3.9c-2.3-3.6-8.5-2.4-8.4,2.3c0.1,2.8,0.5,5.3,1.5,7.9c2.5-1.5,5-2.9,7.5-4.4c-6.2-7.8-8.1-19.1-12-28.2
			c-4.6-10.7-8.6-21.3-11.6-32.5c-1.5-5.6-10.2-3.2-8.7,2.4c3.2,12,7.7,23.3,12.5,34.7c4.3,10.1,6.4,21.3,13.4,30
			c2.8,3.4,9.2-0.3,7.5-4.4c-0.8-2-1.2-3.4-1.2-5.5c-2.8,0.8-5.6,1.5-8.4,2.3c2.2,3.3,5.6,8.6,10.2,8.1c5.5-0.6,5-5.9,5.3-9.8
			C476,583.9,467,584,466.5,589.7L466.5,589.7z"/>
	</g>
</g>
<g id="XMLID_357_">
	<g id="XMLID_566_">
		<path id="XMLID_531_" d="M507.2,716.7c1.8,2.7,3.7,5.4,5,8.4c1.2,2.7,1.4,5.6,2.9,8.2c2,3.7,6.9,2.3,8.2-1.1
			c2.3-5.8-0.1-12,4-17.3c-2.4-1.8-4.7-3.6-7.1-5.5c-1.9,3.5-2.9,7.1-3.4,11.1c-0.6,5.1,7.5,6,8.8,1.2c0.4-1.6,0.9-3.1,1.3-4.7
			c-2.9-0.8-5.8-1.6-8.7-2.4c-1.1,5-2.1,10-3.6,15c-1.7,5.6,7,7.9,8.7,2.4c1.5-4.9,2.5-9.9,3.6-15c1.2-5.6-7.1-8-8.7-2.4
			c-0.4,1.6-0.9,3.1-1.3,4.7c2.9,0.4,5.9,0.8,8.8,1.2c0.3-2.3,1.1-4.5,2.2-6.5c2.3-4.3-3.8-9.6-7.1-5.5c-2.4,3-4.2,6.3-5,10.1
			c-0.7,3.7,0,7.6-1.4,11.1c2.7-0.4,5.5-0.7,8.2-1.1c-1.4-2.5-1.7-5.6-2.9-8.3c-1.4-2.9-3.1-5.6-4.9-8.3
			C511.8,707.3,504,711.8,507.2,716.7L507.2,716.7z"/>
	</g>
</g>
<g id="XMLID_363_">
	<g id="XMLID_560_">
		<path id="XMLID_524_" d="M518.6,737.9c5.8,0,5.8-9,0-9C512.8,728.9,512.8,737.9,518.6,737.9L518.6,737.9z"/>
	</g>
</g>
<g id="XMLID_370_">
	<g id="XMLID_554_">
		<path id="XMLID_518_" d="M519,739.5c5.8,0,5.8-9,0-9C513.2,730.5,513.2,739.5,519,739.5L519,739.5z"/>
	</g>
</g>
<g id="XMLID_377_">
	<g id="XMLID_548_">
		<path id="XMLID_512_" d="M519.1,740.3c5.8,0,5.8-9,0-9C513.3,731.3,513.3,740.3,519.1,740.3L519.1,740.3z"/>
	</g>
</g>
<g id="XMLID_384_">
	<g id="XMLID_540_">
		<path id="XMLID_489_" d="M519.4,741.1c5.8,0,5.8-9,0-9C513.6,732.1,513.6,741.1,519.4,741.1L519.4,741.1z"/>
	</g>
</g>
<g id="XMLID_391_">
	<g id="XMLID_534_">
		<path id="XMLID_482_" d="M712.6,551.6c5.8,0,5.8-9,0-9C706.8,542.6,706.8,551.6,712.6,551.6L712.6,551.6z"/>
	</g>
</g>
<g id="XMLID_398_">
	<g id="XMLID_526_">
		<path id="XMLID_472_" d="M708.4,548.8c0,0.1,0,0.2,0,0.3c0.1-0.4,0.1-0.8,0.2-1.2c0,0.2-0.1,0.3-0.1,0.5c0.2-0.4,0.3-0.7,0.5-1.1
			c0,0,0,0.1-0.1,0.1c-0.5,1.1-0.8,2.2-0.5,3.5c0.3,1,1.1,2.2,2.1,2.7c1,0.6,2.3,0.8,3.5,0.5c1.1-0.3,2.2-1,2.7-2.1
			c0.5-1.1,0.9-2,0.8-3.2c-0.1-1.2-0.5-2.3-1.3-3.2c-0.8-0.8-2.1-1.4-3.2-1.3c-1.2,0.1-2.4,0.4-3.2,1.3
			C708.9,546.4,708.3,547.6,708.4,548.8L708.4,548.8z"/>
	</g>
</g>
<g id="XMLID_405_">
	<g id="XMLID_520_">
		<path id="XMLID_460_" d="M708.3,548.8c-0.1,0.2-0.2,0.4-0.2,0.6c-0.3,0.5-0.5,1.1-0.5,1.7c-0.1,0.6-0.1,1.2,0.1,1.8
			c0.3,1,1.1,2.2,2.1,2.7c1,0.6,2.3,0.8,3.5,0.5c1-0.3,2.2-1,2.7-2.1c0.1-0.2,0.2-0.4,0.2-0.6c0.3-0.5,0.5-1.1,0.5-1.7
			c0.1-0.6,0.1-1.2-0.1-1.8c-0.3-1-1.1-2.2-2.1-2.7c-1-0.6-2.3-0.8-3.5-0.5C709.9,547.1,708.8,547.7,708.3,548.8L708.3,548.8z"/>
	</g>
</g>
<g id="XMLID_412_">
	<g id="XMLID_514_">
		<path id="XMLID_454_" d="M711.1,557.3c5.8,0,5.8-9,0-9C705.3,548.3,705.3,557.3,711.1,557.3L711.1,557.3z"/>
	</g>
</g>
<g id="XMLID_419_">
	<g id="XMLID_491_">
		<path id="XMLID_447_" d="M713,556.8c3.9-0.7,8.1-3.4,6.8-8c-1.4,1.9-2.9,3.8-4.3,5.7c0.2,0,0.4,0,0.6,0.1
			c-0.8-0.2-1.5-0.4-2.3-0.6c0.2,0.1,0.3,0.2,0.5,0.3c-0.5-0.5-1.1-1.1-1.6-1.6c-0.3-0.6-0.2-0.3,0.3,0.8c0.4,0.7,0.9,1.2,1.6,1.6
			c0.8,0.5,1.6,0.7,2.5,0.8c1.7,0.2,3.4,0.2,5.1,0.5c2.4,0.4,4.8-0.6,5.5-3.1c0.6-2.1-0.7-5.1-3.1-5.5c-2.5-0.4-5-0.5-7.5-0.8
			c0.8,0.2,1.5,0.4,2.3,0.6c-0.1-0.1-0.2-0.1-0.2-0.2c0.7,0.9,1.4,1.8,2.1,2.7c-0.8-2.9-2.9-4.2-5.7-4.6c-3-0.4-5.1,3.2-4.3,5.7
			c0,0.2,0.1,0.3,0.1,0.5c0-0.8,0-1.6,0-2.4c-0.1,0.2-0.1,0.3-0.2,0.5c0.4-0.7,0.8-1.3,1.2-2c0.2-0.2-1.3,0.3-1.7,0.4
			c-2.4,0.4-3.7,3.3-3.1,5.5C708.1,556.2,710.6,557.2,713,556.8L713,556.8z"/>
	</g>
</g>
<g id="XMLID_426_">
	<g id="XMLID_485_">
		<path id="XMLID_441_" d="M732.6,554.6c0.2,0.1,0.5,0.1,0.7,0.1c0.1,0,0.1,0,0.2,0c-0.2,0-0.3,0-0.5-0.2c-0.1-0.2-0.3-0.4-0.4-0.7
			c0-0.2,0.1-0.5,0.1-0.7c0.2-0.2,0.4-0.4,0.5-0.5c-0.4,0.3-0.8,0.6-0.9,1.1c-0.1,0.6,0,1.2,0.4,1.6c0.4,0.4,1,0.5,1.5,0.4
			c0,0,0,0,0.1,0c0.8-0.2,1.3-1.1,1-1.8c-0.2-0.8-1.1-1.3-1.8-1c0,0,0,0-0.1,0c0.5,0.1,1,0.3,1.5,0.4c0,0,0,0-0.1-0.1
			c0.1,0.4,0.3,0.7,0.4,1.1c0,0,0-0.1,0-0.1c-0.1,0.4-0.3,0.7-0.4,1.1c-0.3,0.3,0.2-0.1,0.2-0.2c0.2-0.2,0.4-0.5,0.4-0.8
			c0.1-0.5,0.1-1-0.2-1.5c-0.3-0.4-0.7-0.8-1.2-0.9c-0.2-0.1-0.4-0.1-0.6-0.1c-0.1,0-0.1,0-0.2,0c0.2,0,0.2,0,0,0
			c-0.7-0.3-1.7,0.3-1.8,1C731.4,553.6,731.8,554.3,732.6,554.6L732.6,554.6z"/>
	</g>
</g>
<g id="XMLID_461_">
	<g id="XMLID_477_">
		<path id="XMLID_435_" d="M520.3,745.8c0,0-0.1,0-0.1,0c0.3,0.2,0.6,0.5,0.9,0.7c0.1,0.2,0,0.2,0,0c-0.3-0.7-1-1.3-1.8-1
			c-0.7,0.2-1.4,1.1-1,1.8c0.3,0.7,0.5,1.2,1.3,1.5c0.7,0.2,1.7-0.3,1.8-1C521.5,746.9,521.1,746.1,520.3,745.8L520.3,745.8z"/>
	</g>
</g>
<g id="XMLID_468_">
	<g id="XMLID_463_">
		<path id="XMLID_429_" d="M519.1,747.1c0,0,0,0.1,0,0.1c0-0.3,0-0.5,0-0.8c0,0,0,0.1,0,0.1c0.2-0.3,0.5-0.6,0.7-0.9
			c-0.3,0.2-0.5,0.4-0.7,0.6c-0.1,0.1-0.2,0.3-0.2,0.5c0-0.1,0.1-0.1,0.1-0.2c-0.5,0.6-0.6,1.5,0,2.1c0.6,0.6,1.6,0.6,2.1,0
			c0.1-0.2,0.3-0.3,0.4-0.5c0.1-0.1,0.4-0.7,0.2-0.4c-0.2,0.2-0.4,0.4-0.5,0.5c0.7-0.5,1.1-1.2,0.8-2.1c-0.2-0.8-1.1-1.3-1.8-1
			C519.4,745.5,518.9,746.3,519.1,747.1L519.1,747.1z"/>
	</g>
</g>
<g id="XMLID_474_">
	<g id="XMLID_456_">
		<path id="XMLID_422_" d="M390.6,423.2c1.7,6.3,4.2,12.3,6.1,18.6c1.7,5.6,2.9,11.3,5.4,16.7c0.6,1.3,2.9,0.7,2.8-0.8
			c-0.3-6.6-1.1-13.1-2.3-19.6c-0.4-1.9-3.2-1.1-2.9,0.8c0.8,4.6,1.6,9.2,3.4,13.5c0.7,1.8,3.3,1.1,2.9-0.8c-1-4.4-2.4-8.6-4.4-12.7
			c-0.8-1.6-3-0.4-2.7,1.2c0.8,4.2,1.9,8.2,3.3,12.3c0.6,1.8,3.3,1.1,2.9-0.8c-0.8-3.4-1.9-6.5-3.4-9.6c-0.7-1.5-3.3-0.5-2.7,1.2
			c2.1,6.4,4.3,12.7,7.1,18.8c0.6,1.4,2.8,0.7,2.8-0.8c-0.2-4.1-1.2-8.1-2-12.1c-1,0.3-1.9,0.5-2.9,0.8c1,3.3,1.9,6.7,2.9,10
			c0.6,1.9,3.2,1.1,2.9-0.8c-0.5-3.4-1.2-6.8-2.1-10.2c-1,0.3-1.9,0.5-2.9,0.8c1.3,4.4,2.5,8.7,3.8,13.1c0.4,1.3,2.6,1.5,2.9,0
			c0.3-1.7,0.4-1.9,0.4-3.7c0-1.9-3-1.9-3,0c-0.1,1-0.2,1.9-0.3,2.9c1,0,1.9,0,2.9,0c-1.3-4.4-2.5-8.7-3.8-13.1
			c-0.5-1.9-3.4-1.1-2.9,0.8c0.9,3.4,1.5,6.7,2.1,10.2c1-0.3,1.9-0.5,2.9-0.8c-1-3.3-1.9-6.7-2.9-10c-0.5-1.9-3.3-1.1-2.9,0.8
			c0.8,3.7,1.8,7.5,1.9,11.3c0.9-0.3,1.9-0.5,2.8-0.8c-2.7-5.9-4.8-11.9-6.8-18.1c-0.9,0.4-1.8,0.8-2.7,1.2c1.4,2.9,2.4,5.8,3.1,8.9
			c1-0.3,1.9-0.5,2.9-0.8c-1.4-4-2.5-8.1-3.3-12.3c-0.9,0.4-1.8,0.8-2.7,1.2c1.8,3.9,3.1,7.8,4.1,12c1-0.3,1.9-0.5,2.9-0.8
			c-1.7-4.4-2.6-8.9-3.4-13.5c-1,0.3-1.9,0.5-2.9,0.8c1.2,6.2,1.9,12.5,2.2,18.8c0.9-0.3,1.9-0.5,2.8-0.8
			c-2.7-5.6-3.8-11.7-5.7-17.7c-1.8-5.7-4.1-11.1-5.6-16.9C393,420.5,390.1,421.3,390.6,423.2L390.6,423.2z"/>
	</g>
</g>
<g id="XMLID_475_">
	<g id="XMLID_449_">
		<path id="XMLID_415_" d="M409.7,459.1C409.6,459.1,409.6,459.1,409.7,459.1c-0.5-0.3-1.2-0.3-1.6,0c-0.7,0.5-0.9,1.2-0.9,2
			c-0.1,0.6-0.1,1.1-0.1,1.7c0,0.8,0.7,1.5,1.5,1.5c0.8,0,1.5-0.7,1.5-1.5c0-0.3,0-0.7,0-1c0-0.2,0-0.3,0-0.5c0-0.1,0.1-0.3-0.1-0.1
			c-0.2,0.2-0.4,0.4-0.5,0.5c0,0,0.1,0,0.1-0.1c-0.5,0-1,0-1.5,0c0,0,0,0,0.1,0c0.7,0.4,1.7,0.1,2.1-0.5
			C410.6,460.4,410.3,459.6,409.7,459.1L409.7,459.1z"/>
	</g>
</g>
<g id="XMLID_476_">
	<g id="XMLID_443_">
		<path id="XMLID_408_" d="M406.1,461.9c3.4,11.1,6,22.9,10.5,33.6c1.7,4.2,4.8,6.8,7.1,10.5c1.5,2.4,0.6,3.9,1,6.4
			c0.2,1.1,0.6,1.8,1.5,2.4c0.7,0.5,1.9,0.7,2.4-0.3c0.8-1.9,1.1-3.4,1.1-5.5c-1,0.1-2,0.3-2.9,0.4c0.3,1.6,0.1,3.2-0.6,4.6
			c-0.6,1.5,1.5,2.4,2.5,1.5c5.3-4.8,3.5-12.3-0.5-17.2c-1.2-1.5-3.3,0.6-2.1,2.1c3,3.7,4.6,9.3,0.5,13c0.8,0.5,1.7,1,2.5,1.5
			c0.8-2.2,0.9-3.9,0.6-6.2c-0.2-1.7-2.9-1.2-2.9,0.4c-0.2,1.3-0.5,2.6-0.7,4c0.8-0.1,1.6-0.2,2.4-0.3c-1-0.8-0.1-3.3-0.3-4.4
			c-0.2-1.5-0.9-2.7-1.8-3.9c-3.2-4.4-6.2-7.6-8-12.8c-3.5-10.1-6.2-20.4-9.3-30.6C408.4,459.3,405.5,460.1,406.1,461.9L406.1,461.9
			z"/>
	</g>
</g>
<g id="XMLID_481_">
	<g id="XMLID_437_">
		<path id="XMLID_401_" d="M407.3,463.4c5.3,16,9.2,33.9,19.7,47.5c1.8,2.3,4.9,0.1,5.1-2.1c1.2-11-7.2-19.2-8.8-29.7
			c-0.6-3.8-6.4-2.2-5.8,1.6c0.7,4.7,2.1,9,4.4,13.2c2.6,5,4.9,9,4.3,14.9c1.7-0.7,3.4-1.4,5.1-2.1c-9.7-12.6-13.3-30-18.2-44.8
			C411.8,458.2,406,459.8,407.3,463.4L407.3,463.4z"/>
	</g>
</g>
<g id="XMLID_483_">
	<g id="XMLID_431_">
		<path id="XMLID_389_" d="M488.5,431.2c4.3,0.6,7.4,3.4,11.2,5.4c4.2,2.2,8.8,3.5,13,5.6c8.2,4.1,15.8,9.3,24.1,13.4
			c3.5,1.7,6.5-3.5,3-5.2c-8.8-4.3-16.8-9.9-25.6-14.1c-4.2-2-8.7-3.3-12.7-5.6c-3.7-2.1-6.9-4.6-11.3-5.3
			C486.4,424.9,484.7,430.6,488.5,431.2L488.5,431.2z"/>
	</g>
</g>
<g id="XMLID_541_">
	<g id="XMLID_424_">
		<path id="XMLID_378_" d="M691.8,643.4c46.9,2.9,91.8,22.1,127.5,52.4c5.9,5,14.4-3.5,8.5-8.5c-38.3-32.5-85.8-52.9-136-56
			C684.1,630.9,684.1,642.9,691.8,643.4L691.8,643.4z"/>
	</g>
</g>
<g id="XMLID_333_">
	<g id="XMLID_417_">
		<path id="XMLID_367_" d="M448.1,709.9c-12.9,42.2-28.5,83.4-47,123.5c-3.2,7,7.1,13.1,10.4,6.1c18.9-41,35-83.2,48.2-126.3
			C462,705.7,450.4,702.5,448.1,709.9L448.1,709.9z"/>
	</g>
</g>
<g id="XMLID_527_">
	<g id="XMLID_410_">
		<path id="XMLID_345_" d="M425.6,630c-55.1,44.6-111.6,87.5-169.4,128.5c-6.2,4.4-0.3,14.8,6.1,10.4
			c58.6-41.7,115.9-85.2,171.8-130.4C440.1,633.7,431.6,625.2,425.6,630L425.6,630z"/>
	</g>
</g>
<g id="XMLID_334_">
	<g id="XMLID_403_">
		<path id="XMLID_344_" d="M640.6,471.5c38.6-60.1,81-117.8,126.9-172.5c4.9-5.9-3.5-14.4-8.5-8.5
			c-46.6,55.5-89.6,113.9-128.8,174.9C626,471.9,636.4,478,640.6,471.5L640.6,471.5z"/>
	</g>
</g>
<g id="XMLID_450_">
	<g id="XMLID_392_">
		<path id="XMLID_340_" d="M398.6,554.6c-36.7-0.6-73.3,2-109.6,7.5c-7.6,1.2-4.4,12.7,3.2,11.6c35.2-5.4,70.8-7.7,106.4-7.1
			C406.3,566.7,406.3,554.7,398.6,554.6L398.6,554.6z"/>
	</g>
</g>
<g id="XMLID_542_">
	<g id="XMLID_380_">
		<path id="XMLID_339_" d="M590.1,321c-14.8,33.6-26.9,68.2-35.9,103.8c-1.9,7.5,9.7,10.7,11.6,3.2c8.7-34.5,20.2-68.3,34.6-100.9
			C603.5,320.1,593.2,314,590.1,321L590.1,321z"/>
	</g>
</g>
<g id="XMLID_533_">
	<g id="XMLID_373_">
		<path id="XMLID_338_" d="M614.8,839.5c-20-37.6-27.7-80.8-22.5-123c1-7.6-11.1-7.6-12,0c-5.5,44.3,3.1,89.7,24.1,129.1
			C608.1,852.3,618.4,846.3,614.8,839.5L614.8,839.5z"/>
	</g>
</g>
<g id="XMLID_336_">
	<g id="XMLID_356_">
		<path id="XMLID_337_" d="M854.4,442.6c-39.9,18.7-81.1,34.6-123.2,47.7c-7.3,2.3-4.2,13.9,3.2,11.6c43.1-13.4,85.2-29.8,126-48.9
			C867.5,449.7,861.4,439.3,854.4,442.6L854.4,442.6z"/>
	</g>
</g>
</svg>
